<?xml version="1.0" encoding="UTF-8" standalone="no"?><!DOCTYPE svg PUBLIC "-//W3C//DTD SVG 1.1//EN" "http://www.w3.org/Graphics/SVG/1.1/DTD/svg11.dtd"><!-- Generated by graphviz version 2.40.1 (20161225.0304)
 --><!-- Title: wait_current_set Pages: 1 --><svg xmlns="http://www.w3.org/2000/svg" xmlns:xlink="http://www.w3.org/1999/xlink" width="681pt" height="368pt" viewBox="0.00 0.00 681.21 368.00">
<g id="graph0" class="graph" transform="scale(1 1) rotate(0) translate(4 364)">
<title>wait_current_set</title>
<polygon fill="#f7f5f3" stroke="transparent" points="-4,4 -4,-364 677.211,-364 677.211,4 -4,4"/>
<!-- __N1 -->
<g id="node1" class="node">
<title>__N1</title>
<polygon fill="#ffffff" stroke="#ff0000" points="427.6627,-198 337.9693,-198 337.9693,-162 427.6627,-162 427.6627,-198"/>
<text text-anchor="middle" x="382.816" y="-177" font-family="Arial" font-size="10.00" fill="#000000">wait_current_set</text>
</g>
<!-- __N3 -->
<g id="node2" class="node">
<title>__N3</title>
<polygon fill="#ffffff" stroke="#0000ff" points="535.172,-225 481.172,-225 481.172,-189 535.172,-189 535.172,-225"/>
<text text-anchor="middle" x="508.172" y="-204" font-family="Arial" font-size="10.00" fill="#000000">wait_init</text>
</g>
<!-- __N1&#45;&gt;__N3 -->
<g id="edge2" class="edge">
<title>__N1-&gt;__N3</title>
<path fill="none" stroke="#cc0044" d="M427.7183,-189.6714C441.938,-192.7341 457.4883,-196.0834 471.0949,-199.0141"/>
<polygon fill="#cc0044" stroke="#cc0044" points="470.5541,-202.4778 481.0669,-201.1619 472.0281,-195.6347 470.5541,-202.4778"/>
</g>
<!-- __N5 -->
<g id="node4" class="node">
<title>__N5</title>
<polygon fill="#ffffff" stroke="#0000ff" points="553.0388,-171 463.3052,-171 463.3052,-135 553.0388,-135 553.0388,-171"/>
<text text-anchor="middle" x="508.172" y="-150" font-family="Arial" font-size="10.00" fill="#000000">wait_queue_add</text>
</g>
<!-- __N1&#45;&gt;__N5 -->
<g id="edge5" class="edge">
<title>__N1-&gt;__N5</title>
<path fill="none" stroke="#cc0044" d="M427.7183,-170.3286C435.9994,-168.545 444.7318,-166.6642 453.2687,-164.8254"/>
<polygon fill="#cc0044" stroke="#cc0044" points="454.123,-168.2218 463.1619,-162.6946 452.6491,-161.3787 454.123,-168.2218"/>
</g>
<!-- __N4 -->
<g id="node3" class="node">
<title>__N4</title>
<polygon fill="#ffffff" stroke="#0000ff" points="658.033,-225 604.033,-225 604.033,-189 658.033,-189 658.033,-225"/>
<text text-anchor="middle" x="631.033" y="-204" font-family="Arial" font-size="10.00" fill="#000000">list_init</text>
</g>
<!-- __N3&#45;&gt;__N4 -->
<g id="edge1" class="edge">
<title>__N3-&gt;__N4</title>
<path fill="none" stroke="#cc0044" d="M535.4388,-207C552.6177,-207 575.0231,-207 593.8242,-207"/>
<polygon fill="#cc0044" stroke="#cc0044" points="593.8424,-210.5001 603.8424,-207 593.8423,-203.5001 593.8424,-210.5001"/>
</g>
<!-- __N6 -->
<g id="node5" class="node">
<title>__N6</title>
<polygon fill="#ffffff" stroke="#0000ff" points="661.535,-171 600.531,-171 600.531,-135 661.535,-135 661.535,-171"/>
<text text-anchor="middle" x="631.033" y="-150" font-family="Arial" font-size="10.00" fill="#000000">list_empty</text>
</g>
<!-- __N5&#45;&gt;__N6 -->
<g id="edge3" class="edge">
<title>__N5-&gt;__N6</title>
<path fill="none" stroke="#cc0044" d="M552.8752,-153C565.0805,-153 578.2394,-153 590.216,-153"/>
<polygon fill="#cc0044" stroke="#cc0044" points="590.3828,-156.5001 600.3827,-153 590.3827,-149.5001 590.3828,-156.5001"/>
</g>
<!-- __N7 -->
<g id="node6" class="node">
<title>__N7</title>
<polygon fill="#ffffff" stroke="#0000ff" points="673.3898,-117 588.6762,-117 588.6762,-81 673.3898,-81 673.3898,-117"/>
<text text-anchor="middle" x="631.033" y="-96" font-family="Arial" font-size="10.00" fill="#000000">list_add_before</text>
</g>
<!-- __N5&#45;&gt;__N7 -->
<g id="edge4" class="edge">
<title>__N5-&gt;__N7</title>
<path fill="none" stroke="#cc0044" d="M549.4247,-134.8686C559.3521,-130.5053 570.0704,-125.7944 580.3716,-121.2667"/>
<polygon fill="#cc0044" stroke="#cc0044" points="581.9336,-124.4034 589.68,-117.1755 579.1169,-117.9951 581.9336,-124.4034"/>
</g>
<!-- __N8 -->
<g id="node7" class="node">
<title>__N8</title>
<polygon fill="#ffffff" stroke="#0000ff" points="302.143,-198 248.143,-198 248.143,-162 302.143,-162 302.143,-198"/>
<text text-anchor="middle" x="275.143" y="-177" font-family="Arial" font-size="10.00" fill="#000000">__down</text>
</g>
<!-- __N8&#45;&gt;__N1 -->
<g id="edge14" class="edge">
<title>__N8-&gt;__N1</title>
<path fill="none" stroke="#cc0044" d="M302.3134,-180C310.1894,-180 319.0841,-180 328.0142,-180"/>
<polygon fill="#cc0044" stroke="#cc0044" points="328.0592,-183.5001 338.0592,-180 328.0591,-176.5001 328.0592,-183.5001"/>
</g>
<!-- __N9 -->
<g id="node8" class="node">
<title>__N9</title>
<polygon fill="#ffffff" stroke="#0000ff" points="212.143,-198 158.143,-198 158.143,-162 212.143,-162 212.143,-198"/>
<text text-anchor="middle" x="185.143" y="-177" font-family="Arial" font-size="10.00" fill="#000000">down</text>
</g>
<!-- __N9&#45;&gt;__N8 -->
<g id="edge13" class="edge">
<title>__N9-&gt;__N8</title>
<path fill="none" stroke="#cc0044" d="M212.146,-180C220.1707,-180 229.1095,-180 237.6739,-180"/>
<polygon fill="#cc0044" stroke="#cc0044" points="237.8481,-183.5001 247.848,-180 237.848,-176.5001 237.8481,-183.5001"/>
</g>
<!-- __N10 -->
<g id="node9" class="node">
<title>__N10</title>
<polygon fill="#ffffff" stroke="#0000ff" points="116.5965,-360 5.5465,-360 5.5465,-324 116.5965,-324 116.5965,-360"/>
<text text-anchor="middle" x="61.0715" y="-339" font-family="Arial" font-size="10.00" fill="#000000">phi_take_forks_sema</text>
</g>
<!-- __N10&#45;&gt;__N9 -->
<g id="edge6" class="edge">
<title>__N10-&gt;__N9</title>
<path fill="none" stroke="#cc0044" d="M110.7616,-323.8947C114.8741,-321.28 118.7481,-318.3265 122.143,-315 152.5497,-285.2061 169.8996,-237.9179 178.4128,-207.9472"/>
<polygon fill="#cc0044" stroke="#cc0044" points="181.8369,-208.692 181.0624,-198.1255 175.0785,-206.8687 181.8369,-208.692"/>
</g>
<!-- __N11 -->
<g id="node10" class="node">
<title>__N11</title>
<polygon fill="#ffffff" stroke="#0000ff" points="95.9234,-306 26.2196,-306 26.2196,-270 95.9234,-270 95.9234,-306"/>
<text text-anchor="middle" x="61.0715" y="-285" font-family="Arial" font-size="10.00" fill="#000000">cond_signal</text>
</g>
<!-- __N11&#45;&gt;__N9 -->
<g id="edge7" class="edge">
<title>__N11-&gt;__N9</title>
<path fill="none" stroke="#cc0044" d="M96.0202,-276.0713C105.0351,-272.079 114.3768,-267.0649 122.143,-261 141.2738,-246.06 157.8865,-224.0784 169.2423,-206.7827"/>
<polygon fill="#cc0044" stroke="#cc0044" points="172.2707,-208.5431 174.687,-198.2274 166.3652,-204.7847 172.2707,-208.5431"/>
</g>
<!-- __N12 -->
<g id="node11" class="node">
<title>__N12</title>
<polygon fill="#ffffff" stroke="#0000ff" points="114.0965,-252 8.0465,-252 8.0465,-216 114.0965,-216 114.0965,-252"/>
<text text-anchor="middle" x="61.0715" y="-231" font-family="Arial" font-size="10.00" fill="#000000">phi_put_forks_sema</text>
</g>
<!-- __N12&#45;&gt;__N9 -->
<g id="edge8" class="edge">
<title>__N12-&gt;__N9</title>
<path fill="none" stroke="#cc0044" d="M102.7307,-215.8686C117.488,-209.4457 133.9759,-202.2696 148.3036,-196.0337"/>
<polygon fill="#cc0044" stroke="#cc0044" points="150.0574,-199.0876 157.8298,-191.8876 147.2638,-192.6692 150.0574,-199.0876"/>
</g>
<!-- __N13 -->
<g id="node12" class="node">
<title>__N13</title>
<polygon fill="#ffffff" stroke="#0000ff" points="91.5835,-198 30.5595,-198 30.5595,-162 91.5835,-162 91.5835,-198"/>
<text text-anchor="middle" x="61.0715" y="-177" font-family="Arial" font-size="10.00" fill="#000000">cond_wait</text>
</g>
<!-- __N13&#45;&gt;__N9 -->
<g id="edge9" class="edge">
<title>__N13-&gt;__N9</title>
<path fill="none" stroke="#cc0044" d="M91.7409,-180C108.6572,-180 129.7962,-180 147.6835,-180"/>
<polygon fill="#cc0044" stroke="#cc0044" points="147.783,-183.5001 157.783,-180 147.783,-176.5001 147.783,-183.5001"/>
</g>
<!-- __N14 -->
<g id="node13" class="node">
<title>__N14</title>
<polygon fill="#ffffff" stroke="#0000ff" points="89.0665,-144 33.0765,-144 33.0765,-108 89.0665,-108 89.0665,-144"/>
<text text-anchor="middle" x="61.0715" y="-123" font-family="Arial" font-size="10.00" fill="#000000">lock_mm</text>
</g>
<!-- __N14&#45;&gt;__N9 -->
<g id="edge10" class="edge">
<title>__N14-&gt;__N9</title>
<path fill="none" stroke="#cc0044" d="M89.2252,-138.2534C106.8402,-145.9201 129.7127,-155.8749 148.704,-164.1406"/>
<polygon fill="#cc0044" stroke="#cc0044" points="147.3874,-167.3846 157.9533,-168.1662 150.1809,-160.9662 147.3874,-167.3846"/>
</g>
<!-- __N15 -->
<g id="node14" class="node">
<title>__N15</title>
<polygon fill="#ffffff" stroke="#0000ff" points="122.2146,-90 -.0716,-90 -.0716,-54 122.2146,-54 122.2146,-90"/>
<text text-anchor="middle" x="61.0715" y="-69" font-family="Arial" font-size="10.00" fill="#000000">phi_take_forks_condvar</text>
</g>
<!-- __N15&#45;&gt;__N9 -->
<g id="edge11" class="edge">
<title>__N15-&gt;__N9</title>
<path fill="none" stroke="#cc0044" d="M108.4516,-90.0721C113.2758,-92.7434 117.9401,-95.7178 122.143,-99 141.2738,-113.94 157.8865,-135.9216 169.2423,-153.2173"/>
<polygon fill="#cc0044" stroke="#cc0044" points="166.3652,-155.2153 174.687,-161.7726 172.2707,-151.4569 166.3652,-155.2153"/>
</g>
<!-- __N16 -->
<g id="node15" class="node">
<title>__N16</title>
<polygon fill="#ffffff" stroke="#0000ff" points="119.7146,-36 2.4284,-36 2.4284,0 119.7146,0 119.7146,-36"/>
<text text-anchor="middle" x="61.0715" y="-15" font-family="Arial" font-size="10.00" fill="#000000">phi_put_forks_condvar</text>
</g>
<!-- __N16&#45;&gt;__N9 -->
<g id="edge12" class="edge">
<title>__N16-&gt;__N9</title>
<path fill="none" stroke="#cc0044" d="M110.7616,-36.1053C114.8741,-38.72 118.7481,-41.6735 122.143,-45 152.5497,-74.7939 169.8996,-122.0821 178.4128,-152.0528"/>
<polygon fill="#cc0044" stroke="#cc0044" points="175.0785,-153.1313 181.0624,-161.8745 181.8369,-151.308 175.0785,-153.1313"/>
</g>
</g>
</svg>