<?xml version="1.0" encoding="UTF-8" standalone="no"?><!DOCTYPE svg PUBLIC "-//W3C//DTD SVG 1.1//EN" "http://www.w3.org/Graphics/SVG/1.1/DTD/svg11.dtd"><!-- Generated by graphviz version 2.40.1 (20161225.0304)
 --><!-- Title: __up Pages: 1 --><svg xmlns="http://www.w3.org/2000/svg" xmlns:xlink="http://www.w3.org/1999/xlink" width="435pt" height="422pt" viewBox="0.00 0.00 434.94 422.00">
<g id="graph0" class="graph" transform="scale(1 1) rotate(0) translate(4 418)">
<title>__up</title>
<polygon fill="#f7f5f3" stroke="transparent" points="-4,4 -4,-418 430.938,-418 430.938,4 -4,4"/>
<!-- __N1 -->
<g id="node1" class="node">
<title>__N1</title>
<polygon fill="#ffffff" stroke="#ff0000" points="302.143,-225 248.143,-225 248.143,-189 302.143,-189 302.143,-225"/>
<text text-anchor="middle" x="275.143" y="-204" font-family="Arial" font-size="10.00" fill="#000000">__up</text>
</g>
<!-- __N2 -->
<g id="node2" class="node">
<title>__N2</title>
<polygon fill="#ffffff" stroke="#0000ff" points="416.2222,-306 348.8588,-306 348.8588,-270 416.2222,-270 416.2222,-306"/>
<text text-anchor="middle" x="382.5405" y="-285" font-family="Arial" font-size="10.00" fill="#000000">__intr_save</text>
</g>
<!-- __N1&#45;&gt;__N2 -->
<g id="edge1" class="edge">
<title>__N1-&gt;__N2</title>
<path fill="none" stroke="#cc0044" d="M294.6094,-225.126C306.7279,-236.0396 322.8668,-249.9202 338.143,-261 339.5488,-262.0196 340.9942,-263.0385 342.4653,-264.0511"/>
<polygon fill="#cc0044" stroke="#cc0044" points="340.8028,-267.1477 351.0751,-269.7419 344.6626,-261.308 340.8028,-267.1477"/>
</g>
<!-- __N3 -->
<g id="node3" class="node">
<title>__N3</title>
<polygon fill="#ffffff" stroke="#0000ff" points="426.8357,-252 338.2453,-252 338.2453,-216 426.8357,-216 426.8357,-252"/>
<text text-anchor="middle" x="382.5405" y="-231" font-family="Arial" font-size="10.00" fill="#000000">wait_queue_first</text>
</g>
<!-- __N1&#45;&gt;__N3 -->
<g id="edge2" class="edge">
<title>__N1-&gt;__N3</title>
<path fill="none" stroke="#cc0044" d="M302.2439,-213.8132C310.1842,-215.8095 319.1626,-218.0666 328.1662,-220.3302"/>
<polygon fill="#cc0044" stroke="#cc0044" points="327.3466,-223.733 337.8982,-222.7768 329.0534,-216.9442 327.3466,-223.733"/>
</g>
<!-- __N5 -->
<g id="node4" class="node">
<title>__N5</title>
<polygon fill="#ffffff" stroke="#0000ff" points="419.3308,-198 345.7502,-198 345.7502,-162 419.3308,-162 419.3308,-198"/>
<text text-anchor="middle" x="382.5405" y="-177" font-family="Arial" font-size="10.00" fill="#000000">wakeup_wait</text>
</g>
<!-- __N1&#45;&gt;__N5 -->
<g id="edge3" class="edge">
<title>__N1-&gt;__N5</title>
<path fill="none" stroke="#cc0044" d="M302.2439,-200.1868C312.4329,-197.6252 324.3311,-194.634 335.7988,-191.751"/>
<polygon fill="#cc0044" stroke="#cc0044" points="336.867,-195.0914 345.7119,-189.2588 335.1603,-188.3027 336.867,-195.0914"/>
</g>
<!-- __N6 -->
<g id="node5" class="node">
<title>__N6</title>
<polygon fill="#ffffff" stroke="#0000ff" points="421.2182,-144 343.8628,-144 343.8628,-108 421.2182,-108 421.2182,-144"/>
<text text-anchor="middle" x="382.5405" y="-123" font-family="Arial" font-size="10.00" fill="#000000">__intr_restore</text>
</g>
<!-- __N1&#45;&gt;__N6 -->
<g id="edge4" class="edge">
<title>__N1-&gt;__N6</title>
<path fill="none" stroke="#cc0044" d="M294.6094,-188.874C306.7279,-177.9604 322.8668,-164.0798 338.143,-153 339.5488,-151.9804 340.9942,-150.9615 342.4653,-149.9489"/>
<polygon fill="#cc0044" stroke="#cc0044" points="344.6626,-152.692 351.0751,-144.2581 340.8028,-146.8523 344.6626,-152.692"/>
</g>
<!-- __N7 -->
<g id="node6" class="node">
<title>__N7</title>
<polygon fill="#ffffff" stroke="#0000ff" points="212.143,-225 158.143,-225 158.143,-189 212.143,-189 212.143,-225"/>
<text text-anchor="middle" x="185.143" y="-204" font-family="Arial" font-size="10.00" fill="#000000">up</text>
</g>
<!-- __N7&#45;&gt;__N1 -->
<g id="edge13" class="edge">
<title>__N7-&gt;__N1</title>
<path fill="none" stroke="#cc0044" d="M212.146,-207C220.1707,-207 229.1095,-207 237.6739,-207"/>
<polygon fill="#cc0044" stroke="#cc0044" points="237.8481,-210.5001 247.848,-207 237.848,-203.5001 237.8481,-210.5001"/>
</g>
<!-- __N8 -->
<g id="node7" class="node">
<title>__N8</title>
<polygon fill="#ffffff" stroke="#0000ff" points="101.5905,-414 20.5525,-414 20.5525,-378 101.5905,-378 101.5905,-414"/>
<text text-anchor="middle" x="61.0715" y="-393" font-family="Arial" font-size="10.00" fill="#000000">phi_test_sema</text>
</g>
<!-- __N8&#45;&gt;__N7 -->
<g id="edge5" class="edge">
<title>__N8-&gt;__N7</title>
<path fill="none" stroke="#cc0044" d="M101.7469,-383.4013C109.2266,-379.6773 116.4565,-374.9506 122.143,-369 158.1363,-331.3352 174.2349,-270.7958 180.9027,-235.3634"/>
<polygon fill="#cc0044" stroke="#cc0044" points="184.4004,-235.6807 182.6808,-225.2264 177.5057,-234.4713 184.4004,-235.6807"/>
</g>
<!-- __N9 -->
<g id="node8" class="node">
<title>__N9</title>
<polygon fill="#ffffff" stroke="#0000ff" points="116.5965,-360 5.5465,-360 5.5465,-324 116.5965,-324 116.5965,-360"/>
<text text-anchor="middle" x="61.0715" y="-339" font-family="Arial" font-size="10.00" fill="#000000">phi_take_forks_sema</text>
</g>
<!-- __N9&#45;&gt;__N7 -->
<g id="edge6" class="edge">
<title>__N9-&gt;__N7</title>
<path fill="none" stroke="#cc0044" d="M109.8347,-323.9294C114.2359,-321.2904 118.4267,-318.3224 122.143,-315 146.8912,-292.8748 164.5537,-258.6426 174.7644,-234.6641"/>
<polygon fill="#cc0044" stroke="#cc0044" points="178.0092,-235.9759 178.5595,-225.3954 171.5312,-233.3234 178.0092,-235.9759"/>
</g>
<!-- __N10 -->
<g id="node9" class="node">
<title>__N10</title>
<polygon fill="#ffffff" stroke="#0000ff" points="95.9234,-306 26.2196,-306 26.2196,-270 95.9234,-270 95.9234,-306"/>
<text text-anchor="middle" x="61.0715" y="-285" font-family="Arial" font-size="10.00" fill="#000000">cond_signal</text>
</g>
<!-- __N10&#45;&gt;__N7 -->
<g id="edge7" class="edge">
<title>__N10-&gt;__N7</title>
<path fill="none" stroke="#cc0044" d="M95.895,-274.7038C104.722,-270.773 114.0033,-266.131 122.143,-261 135.2834,-252.7168 148.5312,-241.8311 159.4647,-232.0049"/>
<polygon fill="#cc0044" stroke="#cc0044" points="161.9921,-234.4356 166.9823,-225.0895 157.253,-229.2838 161.9921,-234.4356"/>
</g>
<!-- __N11 -->
<g id="node10" class="node">
<title>__N11</title>
<polygon fill="#ffffff" stroke="#0000ff" points="114.0965,-252 8.0465,-252 8.0465,-216 114.0965,-216 114.0965,-252"/>
<text text-anchor="middle" x="61.0715" y="-231" font-family="Arial" font-size="10.00" fill="#000000">phi_put_forks_sema</text>
</g>
<!-- __N11&#45;&gt;__N7 -->
<g id="edge8" class="edge">
<title>__N11-&gt;__N7</title>
<path fill="none" stroke="#cc0044" d="M114.409,-222.3929C125.6401,-219.9488 137.2593,-217.4203 147.7545,-215.1364"/>
<polygon fill="#cc0044" stroke="#cc0044" points="148.792,-218.4926 157.819,-212.9461 147.3034,-211.6527 148.792,-218.4926"/>
</g>
<!-- __N12 -->
<g id="node11" class="node">
<title>__N12</title>
<polygon fill="#ffffff" stroke="#0000ff" points="91.5835,-198 30.5595,-198 30.5595,-162 91.5835,-162 91.5835,-198"/>
<text text-anchor="middle" x="61.0715" y="-177" font-family="Arial" font-size="10.00" fill="#000000">cond_wait</text>
</g>
<!-- __N12&#45;&gt;__N7 -->
<g id="edge9" class="edge">
<title>__N12-&gt;__N7</title>
<path fill="none" stroke="#cc0044" d="M91.7409,-186.6742C108.7362,-190.3726 129.9938,-194.9986 147.934,-198.9027"/>
<polygon fill="#cc0044" stroke="#cc0044" points="147.2674,-202.3395 157.783,-201.046 148.756,-195.4996 147.2674,-202.3395"/>
</g>
<!-- __N13 -->
<g id="node12" class="node">
<title>__N13</title>
<polygon fill="#ffffff" stroke="#0000ff" points="94.6846,-144 27.4584,-144 27.4584,-108 94.6846,-108 94.6846,-144"/>
<text text-anchor="middle" x="61.0715" y="-123" font-family="Arial" font-size="10.00" fill="#000000">unlock_mm</text>
</g>
<!-- __N13&#45;&gt;__N7 -->
<g id="edge10" class="edge">
<title>__N13-&gt;__N7</title>
<path fill="none" stroke="#cc0044" d="M94.9397,-138.8728C104.0496,-142.8921 113.7091,-147.6836 122.143,-153 135.2834,-161.2832 148.5312,-172.1689 159.4647,-181.9951"/>
<polygon fill="#cc0044" stroke="#cc0044" points="157.253,-184.7162 166.9823,-188.9105 161.9921,-179.5644 157.253,-184.7162"/>
</g>
<!-- __N14 -->
<g id="node13" class="node">
<title>__N14</title>
<polygon fill="#ffffff" stroke="#0000ff" points="122.2146,-90 -.0716,-90 -.0716,-54 122.2146,-54 122.2146,-90"/>
<text text-anchor="middle" x="61.0715" y="-69" font-family="Arial" font-size="10.00" fill="#000000">phi_take_forks_condvar</text>
</g>
<!-- __N14&#45;&gt;__N7 -->
<g id="edge11" class="edge">
<title>__N14-&gt;__N7</title>
<path fill="none" stroke="#cc0044" d="M109.8347,-90.0706C114.2359,-92.7096 118.4267,-95.6776 122.143,-99 146.8912,-121.1252 164.5537,-155.3574 174.7644,-179.3359"/>
<polygon fill="#cc0044" stroke="#cc0044" points="171.5312,-180.6766 178.5595,-188.6046 178.0092,-178.0241 171.5312,-180.6766"/>
</g>
<!-- __N15 -->
<g id="node14" class="node">
<title>__N15</title>
<polygon fill="#ffffff" stroke="#0000ff" points="119.7146,-36 2.4284,-36 2.4284,0 119.7146,0 119.7146,-36"/>
<text text-anchor="middle" x="61.0715" y="-15" font-family="Arial" font-size="10.00" fill="#000000">phi_put_forks_condvar</text>
</g>
<!-- __N15&#45;&gt;__N7 -->
<g id="edge12" class="edge">
<title>__N15-&gt;__N7</title>
<path fill="none" stroke="#cc0044" d="M111.2937,-36.0685C115.2458,-38.6836 118.9393,-41.6476 122.143,-45 158.1363,-82.6648 174.2349,-143.2042 180.9027,-178.6366"/>
<polygon fill="#cc0044" stroke="#cc0044" points="177.5057,-179.5287 182.6808,-188.7736 184.4004,-178.3193 177.5057,-179.5287"/>
</g>
</g>
</svg>