<?xml version="1.0" encoding="UTF-8" standalone="no"?><!DOCTYPE svg PUBLIC "-//W3C//DTD SVG 1.1//EN" "http://www.w3.org/Graphics/SVG/1.1/DTD/svg11.dtd"><!-- Generated by graphviz version 2.40.1 (20161225.0304)
 --><!-- Title: wakeup_wait Pages: 1 --><svg xmlns="http://www.w3.org/2000/svg" xmlns:xlink="http://www.w3.org/1999/xlink" width="572pt" height="422pt" viewBox="0.00 0.00 571.77 422.00">
<g id="graph0" class="graph" transform="scale(1 1) rotate(0) translate(4 418)">
<title>wakeup_wait</title>
<polygon fill="#f7f5f3" stroke="transparent" points="-4,4 -4,-418 567.768,-418 567.768,4 -4,4"/>
<!-- __N1 -->
<g id="node1" class="node">
<title>__N1</title>
<polygon fill="#ffffff" stroke="#ff0000" points="441.6373,-171 368.0567,-171 368.0567,-135 441.6373,-135 441.6373,-171"/>
<text text-anchor="middle" x="404.847" y="-150" font-family="Arial" font-size="10.00" fill="#000000">wakeup_wait</text>
</g>
<!-- __N2 -->
<g id="node2" class="node">
<title>__N2</title>
<polygon fill="#ffffff" stroke="#0000ff" points="563.781,-198 477.729,-198 477.729,-162 563.781,-162 563.781,-198"/>
<text text-anchor="middle" x="520.755" y="-177" font-family="Arial" font-size="10.00" fill="#000000">wait_queue_del</text>
</g>
<!-- __N1&#45;&gt;__N2 -->
<g id="edge1" class="edge">
<title>__N1-&gt;__N2</title>
<path fill="none" stroke="#cc0044" d="M441.8397,-161.6172C450.1192,-163.5459 459.0583,-165.6282 467.8419,-167.6742"/>
<polygon fill="#cc0044" stroke="#cc0044" points="467.1159,-171.0988 477.6492,-169.9588 468.704,-164.2813 467.1159,-171.0988"/>
</g>
<!-- __N3 -->
<g id="node3" class="node">
<title>__N3</title>
<polygon fill="#ffffff" stroke="#0000ff" points="558.7174,-144 482.7926,-144 482.7926,-108 558.7174,-108 558.7174,-144"/>
<text text-anchor="middle" x="520.755" y="-123" font-family="Arial" font-size="10.00" fill="#000000">wakeup_proc</text>
</g>
<!-- __N1&#45;&gt;__N3 -->
<g id="edge2" class="edge">
<title>__N1-&gt;__N3</title>
<path fill="none" stroke="#cc0044" d="M441.8397,-144.3828C451.7807,-142.0671 462.6726,-139.5299 473.1044,-137.0999"/>
<polygon fill="#cc0044" stroke="#cc0044" points="473.9737,-140.4912 482.9189,-134.8137 472.3856,-133.6737 473.9737,-140.4912"/>
</g>
<!-- __N4 -->
<g id="node4" class="node">
<title>__N4</title>
<polygon fill="#ffffff" stroke="#0000ff" points="317.0475,-225 263.0475,-225 263.0475,-189 317.0475,-189 317.0475,-225"/>
<text text-anchor="middle" x="290.0475" y="-204" font-family="Arial" font-size="10.00" fill="#000000">__up</text>
</g>
<!-- __N4&#45;&gt;__N1 -->
<g id="edge12" class="edge">
<title>__N4-&gt;__N1</title>
<path fill="none" stroke="#cc0044" d="M317.2534,-194.2028C329.6543,-188.3695 344.6838,-181.2999 358.7667,-174.6755"/>
<polygon fill="#cc0044" stroke="#cc0044" points="360.2882,-177.8278 367.8473,-170.4041 357.3086,-171.4935 360.2882,-177.8278"/>
</g>
<!-- __N5 -->
<g id="node5" class="node">
<title>__N5</title>
<polygon fill="#ffffff" stroke="#0000ff" points="212.143,-225 158.143,-225 158.143,-189 212.143,-189 212.143,-225"/>
<text text-anchor="middle" x="185.143" y="-204" font-family="Arial" font-size="10.00" fill="#000000">up</text>
</g>
<!-- __N5&#45;&gt;__N4 -->
<g id="edge11" class="edge">
<title>__N5-&gt;__N4</title>
<path fill="none" stroke="#cc0044" d="M212.1585,-207C224.4215,-207 239.132,-207 252.4501,-207"/>
<polygon fill="#cc0044" stroke="#cc0044" points="252.759,-210.5001 262.7589,-207 252.7589,-203.5001 252.759,-210.5001"/>
</g>
<!-- __N6 -->
<g id="node6" class="node">
<title>__N6</title>
<polygon fill="#ffffff" stroke="#0000ff" points="101.5905,-414 20.5525,-414 20.5525,-378 101.5905,-378 101.5905,-414"/>
<text text-anchor="middle" x="61.0715" y="-393" font-family="Arial" font-size="10.00" fill="#000000">phi_test_sema</text>
</g>
<!-- __N6&#45;&gt;__N5 -->
<g id="edge3" class="edge">
<title>__N6-&gt;__N5</title>
<path fill="none" stroke="#cc0044" d="M101.7469,-383.4013C109.2266,-379.6773 116.4565,-374.9506 122.143,-369 158.1363,-331.3352 174.2349,-270.7958 180.9027,-235.3634"/>
<polygon fill="#cc0044" stroke="#cc0044" points="184.4004,-235.6807 182.6808,-225.2264 177.5057,-234.4713 184.4004,-235.6807"/>
</g>
<!-- __N7 -->
<g id="node7" class="node">
<title>__N7</title>
<polygon fill="#ffffff" stroke="#0000ff" points="116.5965,-360 5.5465,-360 5.5465,-324 116.5965,-324 116.5965,-360"/>
<text text-anchor="middle" x="61.0715" y="-339" font-family="Arial" font-size="10.00" fill="#000000">phi_take_forks_sema</text>
</g>
<!-- __N7&#45;&gt;__N5 -->
<g id="edge4" class="edge">
<title>__N7-&gt;__N5</title>
<path fill="none" stroke="#cc0044" d="M109.8347,-323.9294C114.2359,-321.2904 118.4267,-318.3224 122.143,-315 146.8912,-292.8748 164.5537,-258.6426 174.7644,-234.6641"/>
<polygon fill="#cc0044" stroke="#cc0044" points="178.0092,-235.9759 178.5595,-225.3954 171.5312,-233.3234 178.0092,-235.9759"/>
</g>
<!-- __N8 -->
<g id="node8" class="node">
<title>__N8</title>
<polygon fill="#ffffff" stroke="#0000ff" points="95.9234,-306 26.2196,-306 26.2196,-270 95.9234,-270 95.9234,-306"/>
<text text-anchor="middle" x="61.0715" y="-285" font-family="Arial" font-size="10.00" fill="#000000">cond_signal</text>
</g>
<!-- __N8&#45;&gt;__N5 -->
<g id="edge5" class="edge">
<title>__N8-&gt;__N5</title>
<path fill="none" stroke="#cc0044" d="M95.895,-274.7038C104.722,-270.773 114.0033,-266.131 122.143,-261 135.2834,-252.7168 148.5312,-241.8311 159.4647,-232.0049"/>
<polygon fill="#cc0044" stroke="#cc0044" points="161.9921,-234.4356 166.9823,-225.0895 157.253,-229.2838 161.9921,-234.4356"/>
</g>
<!-- __N9 -->
<g id="node9" class="node">
<title>__N9</title>
<polygon fill="#ffffff" stroke="#0000ff" points="114.0965,-252 8.0465,-252 8.0465,-216 114.0965,-216 114.0965,-252"/>
<text text-anchor="middle" x="61.0715" y="-231" font-family="Arial" font-size="10.00" fill="#000000">phi_put_forks_sema</text>
</g>
<!-- __N9&#45;&gt;__N5 -->
<g id="edge6" class="edge">
<title>__N9-&gt;__N5</title>
<path fill="none" stroke="#cc0044" d="M114.409,-222.3929C125.6401,-219.9488 137.2593,-217.4203 147.7545,-215.1364"/>
<polygon fill="#cc0044" stroke="#cc0044" points="148.792,-218.4926 157.819,-212.9461 147.3034,-211.6527 148.792,-218.4926"/>
</g>
<!-- __N10 -->
<g id="node10" class="node">
<title>__N10</title>
<polygon fill="#ffffff" stroke="#0000ff" points="91.5835,-198 30.5595,-198 30.5595,-162 91.5835,-162 91.5835,-198"/>
<text text-anchor="middle" x="61.0715" y="-177" font-family="Arial" font-size="10.00" fill="#000000">cond_wait</text>
</g>
<!-- __N10&#45;&gt;__N5 -->
<g id="edge7" class="edge">
<title>__N10-&gt;__N5</title>
<path fill="none" stroke="#cc0044" d="M91.7409,-186.6742C108.7362,-190.3726 129.9938,-194.9986 147.934,-198.9027"/>
<polygon fill="#cc0044" stroke="#cc0044" points="147.2674,-202.3395 157.783,-201.046 148.756,-195.4996 147.2674,-202.3395"/>
</g>
<!-- __N11 -->
<g id="node11" class="node">
<title>__N11</title>
<polygon fill="#ffffff" stroke="#0000ff" points="94.6846,-144 27.4584,-144 27.4584,-108 94.6846,-108 94.6846,-144"/>
<text text-anchor="middle" x="61.0715" y="-123" font-family="Arial" font-size="10.00" fill="#000000">unlock_mm</text>
</g>
<!-- __N11&#45;&gt;__N5 -->
<g id="edge8" class="edge">
<title>__N11-&gt;__N5</title>
<path fill="none" stroke="#cc0044" d="M94.9397,-138.8728C104.0496,-142.8921 113.7091,-147.6836 122.143,-153 135.2834,-161.2832 148.5312,-172.1689 159.4647,-181.9951"/>
<polygon fill="#cc0044" stroke="#cc0044" points="157.253,-184.7162 166.9823,-188.9105 161.9921,-179.5644 157.253,-184.7162"/>
</g>
<!-- __N12 -->
<g id="node12" class="node">
<title>__N12</title>
<polygon fill="#ffffff" stroke="#0000ff" points="122.2146,-90 -.0716,-90 -.0716,-54 122.2146,-54 122.2146,-90"/>
<text text-anchor="middle" x="61.0715" y="-69" font-family="Arial" font-size="10.00" fill="#000000">phi_take_forks_condvar</text>
</g>
<!-- __N12&#45;&gt;__N5 -->
<g id="edge9" class="edge">
<title>__N12-&gt;__N5</title>
<path fill="none" stroke="#cc0044" d="M109.8347,-90.0706C114.2359,-92.7096 118.4267,-95.6776 122.143,-99 146.8912,-121.1252 164.5537,-155.3574 174.7644,-179.3359"/>
<polygon fill="#cc0044" stroke="#cc0044" points="171.5312,-180.6766 178.5595,-188.6046 178.0092,-178.0241 171.5312,-180.6766"/>
</g>
<!-- __N13 -->
<g id="node13" class="node">
<title>__N13</title>
<polygon fill="#ffffff" stroke="#0000ff" points="119.7146,-36 2.4284,-36 2.4284,0 119.7146,0 119.7146,-36"/>
<text text-anchor="middle" x="61.0715" y="-15" font-family="Arial" font-size="10.00" fill="#000000">phi_put_forks_condvar</text>
</g>
<!-- __N13&#45;&gt;__N5 -->
<g id="edge10" class="edge">
<title>__N13-&gt;__N5</title>
<path fill="none" stroke="#cc0044" d="M111.2937,-36.0685C115.2458,-38.6836 118.9393,-41.6476 122.143,-45 158.1363,-82.6648 174.2349,-143.2042 180.9027,-178.6366"/>
<polygon fill="#cc0044" stroke="#cc0044" points="177.5057,-179.5287 182.6808,-188.7736 184.4004,-178.3193 177.5057,-179.5287"/>
</g>
<!-- __N14 -->
<g id="node14" class="node">
<title>__N14</title>
<polygon fill="#ffffff" stroke="#0000ff" points="326.1676,-171 253.9274,-171 253.9274,-135 326.1676,-135 326.1676,-171"/>
<text text-anchor="middle" x="290.0475" y="-150" font-family="Arial" font-size="10.00" fill="#000000">wakeup_first</text>
</g>
<!-- __N14&#45;&gt;__N1 -->
<g id="edge13" class="edge">
<title>__N14-&gt;__N1</title>
<path fill="none" stroke="#cc0044" d="M326.3708,-153C336.3226,-153 347.2561,-153 357.7188,-153"/>
<polygon fill="#cc0044" stroke="#cc0044" points="357.971,-156.5001 367.9709,-153 357.9709,-149.5001 357.971,-156.5001"/>
</g>
<!-- __N15 -->
<g id="node15" class="node">
<title>__N15</title>
<polygon fill="#ffffff" stroke="#0000ff" points="331.8567,-117 248.2383,-117 248.2383,-81 331.8567,-81 331.8567,-117"/>
<text text-anchor="middle" x="290.0475" y="-96" font-family="Arial" font-size="10.00" fill="#000000">wakeup_queue</text>
</g>
<!-- __N15&#45;&gt;__N1 -->
<g id="edge14" class="edge">
<title>__N15-&gt;__N1</title>
<path fill="none" stroke="#cc0044" d="M328.5934,-117.1314C338.1697,-121.636 348.5335,-126.511 358.4431,-131.1723"/>
<polygon fill="#cc0044" stroke="#cc0044" points="357.2257,-134.4675 367.7644,-135.5569 360.2053,-128.1332 357.2257,-134.4675"/>
</g>
</g>
</svg>